<?xml version="1.0" encoding="UTF-8" standalone="no" ?>
<!DOCTYPE svg PUBLIC "-//W3C//DTD SVG 1.1//EN" "http://www.w3.org/Graphics/SVG/1.1/DTD/svg11.dtd">
<svg xmlns="http://www.w3.org/2000/svg" xmlns:xlink="http://www.w3.org/1999/xlink" version="1.1" width="1280" height="1024" viewBox="0 0 1280 1024" xml:space="preserve">
<desc>Created with Fabric.js 5.3.0</desc>
<defs>
</defs>
<g transform="matrix(1 0 0 1 640 512)" id="background-logo"  >
<rect style="stroke: none; stroke-width: 0; stroke-dasharray: none; stroke-linecap: butt; stroke-dashoffset: 0; stroke-linejoin: miter; stroke-miterlimit: 4; fill: rgb(255,255,255); fill-opacity: 0; fill-rule: nonzero; opacity: 1;"  paint-order="stroke"  x="-640" y="-512" rx="0" ry="0" width="1280" height="1024" />
</g>
<g transform="matrix(1.9211538461538462 0 0 1.9211538461538462 640 401.6906405657256)" id="logo-logo"  >
<g style=""  paint-order="stroke"   >
		<g transform="matrix(0.752024023042425 0 0 0.7520240230424251 0 21.928707669923483)"  >
<path style="stroke: none; stroke-width: 1; stroke-dasharray: none; stroke-linecap: butt; stroke-dashoffset: 0; stroke-linejoin: miter; stroke-miterlimit: 4; fill: rgb(0,228,176); fill-rule: nonzero; opacity: 1;"  paint-order="stroke"  transform=" translate(-297.649994, -326.80958549999997)" d="M 453.4092407 280.42453 L 377.4761657 280.42453 L 377.4761657 280.4051513 L 244.388382 280.4051513 L 244.388382 280.42453 L 224.4263764 280.42453 L 224.4263764 277.453247 C 224.4263764 260.87051379999997 210.93469240000002 247.37881459999997 194.3519288 247.37881459999997 L 171.9651948 247.37881459999997 C 155.3824464 247.37881459999997 141.89074720000002 260.87051379999997 141.89074720000002 277.453247 L 141.89074720000002 302.3743896 C 141.89074720000002 318.9571228 155.38244640000002 332.44882199999995 171.9651948 332.44882199999995 L 194.3519288 332.44882199999995 C 210.93469249999998 332.44882199999995 224.42637639999998 318.9571228 224.42637639999998 302.3743896 L 224.42637639999998 299.66616819999996 L 244.38838199999998 299.66616819999996 L 244.38838199999998 406.24035639999994 L 377.4761658 406.24035639999994 L 377.4761658 299.6661682 L 392.2080689 299.6661682 L 392.2080689 334.12429810000003 L 401.609253 334.12429810000003 L 401.883484 333.74053960000003 L 414.7685853 315.70135500000004 L 427.6539918 333.74053960000003 L 427.92791759999994 334.12429810000003 L 437.32913219999995 334.12429810000003 L 437.32913219999995 299.6661682 L 453.40924079999996 299.6661682 L 453.40924079999996 280.42453 z M 205.1847382 302.3743896 C 205.1847382 308.34747309999995 200.3250122 313.2071838 194.3519288 313.2071838 L 171.9651948 313.2071838 C 165.9921266 313.2071838 161.1323854 308.3474731 161.1323854 302.3743896 L 161.1323854 277.453247 C 161.1323854 271.480194 165.9921266 266.62045279999995 171.9651948 266.62045279999995 L 194.3519288 266.62045279999995 C 200.3250123 266.62045279999995 205.1847382 271.4801939999999 205.1847382 277.453247 L 205.1847382 302.3743896 z M 327.790741 359.1754761 L 295.32046510000004 359.1754761 L 295.32046510000004 326.70520020000004 L 327.790741 326.70520020000004 L 327.790741 359.1754761 z" stroke-linecap="round" />
</g>
		<g transform="matrix(0.752024023042425 0 0 0.7520240230424251 -15.043584515206021 -52.74185813146005)"  >
<polygon style="stroke: none; stroke-width: 1; stroke-dasharray: none; stroke-linecap: butt; stroke-dashoffset: 0; stroke-linejoin: miter; stroke-miterlimit: 4; fill: rgb(0,228,176); fill-rule: nonzero; opacity: 1;"  paint-order="stroke"  points="99.14151759999999,38.457145699999984 33.946418800000004,-38.457145699999984 -99.14151759999999,-38.457145699999984 -33.94643399999998,38.457145699999984 " />
</g>
</g>
</g>
</svg>